<svg xmlns="http://www.w3.org/2000/svg" width="168" height="39.714" viewBox="0 0 168 39.714">
    <defs>
        <style>
            .prefix__cls-1,.prefix__cls-2{fill:#fff}.prefix__cls-2{opacity:.701}
        </style>
    </defs>
    <g id="prefix__Group_6" data-name="Group 6" transform="translate(-250.646 -270.732)">
        <path id="prefix__Path_2" d="M6.424-13.484a4.393 4.393 0 0 1-1.71-.32 3.663 3.663 0 0 1-1.293-.89 4.118 4.118 0 0 1-.82-1.32 4.488 4.488 0 0 1-.292-1.64 3.861 3.861 0 0 1 1.835-3.392 13.535 13.535 0 0 1 5.922-1.64 2.325 2.325 0 0 0-.542-1.459 2.1 2.1 0 0 0-1.624-.544 4.926 4.926 0 0 0-1.766.334 12.832 12.832 0 0 0-1.876.918l-1.474-2.7a14.458 14.458 0 0 1 2.795-1.307 9.493 9.493 0 0 1 3.1-.5 5.277 5.277 0 0 1 4.073 1.517 6.76 6.76 0 0 1 1.4 4.712v7.9h-3.335l-.278-1.416h-.111a8.824 8.824 0 0 1-1.863 1.264 4.72 4.72 0 0 1-2.141.485zm1.39-3.17a2.249 2.249 0 0 0 1.2-.306 5.844 5.844 0 0 0 1.057-.859v-2.419a7.35 7.35 0 0 0-3 .89 1.68 1.68 0 0 0-.834 1.39 1.149 1.149 0 0 0 .431.987 1.893 1.893 0 0 0 1.146.318zm9.786 2.837v-13.791h4.671L24-22.882q.278.834.515 1.6t.459 1.488h.111q.25-.723.5-1.488t.5-1.6l1.613-4.727h4.643v13.791h-3.618v-3.531q0-.556.042-1.335t.111-1.613q.07-.834.139-1.626t.125-1.376h-.111q-.3.918-.667 1.946t-.667 1.919l-1.613 4.421h-2.224l-1.641-4.421q-.306-.89-.681-1.932t-.679-1.934h-.111q.056.584.125 1.376t.139 1.624q.07.834.125 1.613t.056 1.335v3.532zm19.88 5.394a7.171 7.171 0 0 1-1.084-.07 5.315 5.315 0 0 1-.862-.208l.723-3.114q.195.056.445.111a2.182 2.182 0 0 0 .473.056 2.29 2.29 0 0 0 1.585-.5 3.059 3.059 0 0 0 .834-1.307l.195-.723-5.311-13.43h4.115l1.972 5.922q.3.945.556 1.919t.528 2h.111q.222-.973.459-1.96t.487-1.96l1.668-5.922H48.3l-4.782 13.93a18.61 18.61 0 0 1-1.042 2.294 6.385 6.385 0 0 1-1.251 1.64 4.822 4.822 0 0 1-1.613.987 6.138 6.138 0 0 1-2.13.335zm12.512-5.06a4.121 4.121 0 0 1-.859-.083 6.137 6.137 0 0 1-.779-.222l.665-3.668a2.2 2.2 0 0 0 .334.083 2.2 2.2 0 0 0 .361.028 1.237 1.237 0 0 0 .961-.459 3.017 3.017 0 0 0 .542-1.6q.278-2.058.486-4.087t.459-4.115h10.179v13.789h-4.089v-10.594h-2.864q-.195 1.529-.376 3.072t-.4 3.073a6.432 6.432 0 0 1-1.474 3.559 4.084 4.084 0 0 1-3.144 1.223zm22.1 0a7.677 7.677 0 0 1-2.753-.485 6.343 6.343 0 0 1-2.224-1.416 6.485 6.485 0 0 1-1.474-2.27 8.264 8.264 0 0 1-.528-3.059 7.846 7.846 0 0 1 .556-3.017 7.138 7.138 0 0 1 1.459-2.28 6.345 6.345 0 0 1 2.073-1.432 6.081 6.081 0 0 1 2.419-.5 6.151 6.151 0 0 1 2.572.5 5.08 5.08 0 0 1 1.835 1.39 5.894 5.894 0 0 1 1.1 2.1 9.141 9.141 0 0 1 .361 2.629 9.577 9.577 0 0 1-.056 1.057q-.056.5-.111.751h-8.253a3.376 3.376 0 0 0 1.238 2.211 3.842 3.842 0 0 0 2.349.708 5.676 5.676 0 0 0 2.975-.918l1.362 2.475a9.058 9.058 0 0 1-2.349 1.14 8.256 8.256 0 0 1-2.543.415zm-3.052-8.731h4.977a3.129 3.129 0 0 0-.528-1.891 2.058 2.058 0 0 0-1.78-.723 2.528 2.528 0 0 0-1.71.64 3.214 3.214 0 0 0-.96 1.974zm11.289 8.4v-13.794h4.087v5.088h1.416l1.2-2.53a7.991 7.991 0 0 1 .862-1.432 3.544 3.544 0 0 1 .987-.89 3.727 3.727 0 0 1 1.154-.445 6.819 6.819 0 0 1 1.362-.125 3.045 3.045 0 0 1 1.112.195l-.64 3.781a1.719 1.719 0 0 0-.264-.083 1.213 1.213 0 0 0-.264-.028 1.8 1.8 0 0 0-.945.25 2.458 2.458 0 0 0-.809 1.14l-.723 1.64 4.643 7.229h-4.475l-3.17-5.505h-1.446v5.505zm20.464.334a7.267 7.267 0 0 1-2.683-.485 6.241 6.241 0 0 1-2.155-1.405 6.517 6.517 0 0 1-1.446-2.266 8.374 8.374 0 0 1-.528-3.072 7.665 7.665 0 0 1 .584-3.073 6.659 6.659 0 0 1 1.571-2.266 6.833 6.833 0 0 1 2.294-1.4 7.746 7.746 0 0 1 2.725-.486 5.779 5.779 0 0 1 2.266.417 7.14 7.14 0 0 1 1.766 1.057l-1.919 2.641a2.977 2.977 0 0 0-1.863-.809 2.885 2.885 0 0 0-2.363 1.057 4.4 4.4 0 0 0-.862 2.864 4.351 4.351 0 0 0 .876 2.864 2.751 2.751 0 0 0 2.21 1.057 3.025 3.025 0 0 0 1.293-.292 6.656 6.656 0 0 0 1.182-.708l1.613 2.669a6.246 6.246 0 0 1-2.224 1.264 7.775 7.775 0 0 1-2.337.368z" class="prefix__cls-1" data-name="Path 2" transform="translate(313.294 312.995)"/>
        <g id="prefix__amulex_simple_ru" transform="translate(250.646 270.732)">
            <g id="prefix__Group_4" data-name="Group 4">
                <path id="prefix__Path_39" d="M4.106 39.711L27.337 0 55.8 39.711 0 16.874l44.323 12.431-16.986-16.762z" class="prefix__cls-2" data-name="Path 39"/>
                <path id="prefix__Path_40" d="M7.3 39.711L30.53 7.594V0z" class="prefix__cls-1" data-name="Path 40" transform="translate(-3.194)"/>
                <path id="prefix__Path_41" d="M48.6 13.5v4.949l16.986 16.762z" class="prefix__cls-1" data-name="Path 41" transform="translate(-21.263 -5.906)"/>
                <path id="prefix__Path_42" d="M0 30l47.925 16.368 7.875 6.471" class="prefix__cls-1" data-name="Path 42" transform="translate(0 -13.126)"/>
                <path id="prefix__Path_43" d="M7.3 45.617l23.23-27.168V13.5z" class="prefix__cls-2" data-name="Path 43" transform="translate(-3.194 -5.906)"/>
            </g>
        </g>
    </g>
</svg>
