<svg xmlns="http://www.w3.org/2000/svg" width="125" height="33.979" viewBox="0 0 125 33.979">
    <g id="prefix__SG_RB_Brand_Block_2_L_LIGHT_BKGD-RGB" data-name="SG_RB_Brand Block_2 L_LIGHT BKGD-RGB" transform="translate(-144.8 -6.9)">
        <path id="prefix__Path_1" d="M197.305 13.3a3.646 3.646 0 0 1 4 3.457v.455c0 2.365-1.547 3.73-4 3.73h-4.913v3.821H190.3V13.3zm.091 5.64a1.713 1.713 0 0 0 1.82-1.547v-.273a1.835 1.835 0 0 0-1.638-2H192.3v3.821z" data-name="Path 1" transform="translate(-15.023 -.576)"/>
        <path id="prefix__Path_2" d="M210.341 24.909c-3.639 0-6.641-2.456-6.641-6s3-6 6.641-6 6.641 2.456 6.641 6-3 6-6.641 6m0-10.1a4.166 4.166 0 0 0-4.458 3.821v.27c0 2.365 1.729 4.094 4.458 4.094S214.8 21.27 214.8 18.9s-1.729-4.094-4.458-4.094" data-name="Path 2" transform="translate(-16.233 -.541)"/>
        <path id="prefix__Path_3" d="M227.241 24.908c-3.821 0-6.641-2.456-6.641-6s2.911-6 6.641-6a8.012 8.012 0 0 1 5.277 1.729l-1.092 1.638a6.811 6.811 0 0 0-4.094-1.456c-2.82 0-4.549 1.729-4.549 4s1.729 4.094 4.549 4.094a6.788 6.788 0 0 0 4.185-1.365l1.092 1.638a9.187 9.187 0 0 1-5.368 1.729" data-name="Path 3" transform="translate(-17.758 -.541)"/>
        <path id="prefix__Path_4" d="M253.448 21.843l-1.274 2.729H249.9l5.549-11.372h2.183l5.549 11.372h-2.274l-1.274-2.729zm.91-1.82h4.367l-2.183-4.64z" data-name="Path 4" transform="translate(-20.402 -.569)"/>
        <path id="prefix__Path_5" d="M275.752 24.672v-4.913h-7.46v4.913H266.2V13.3h2.092v4.64h7.46V13.3h2.092v11.372z" data-name="Path 5" transform="translate(-21.873 -.578)"/>
        <path id="prefix__Path_6" d="M282.5 24.672V13.3h2.092v5.277l5.731-5.277h2.547l-5.822 5.459 6.1 5.913h-2.82l-5.731-5.549v5.549z" data-name="Path 6" transform="translate(-23.344 -.578)"/>
        <path id="prefix__Path_7" d="M243.4 17.385h-4.913V15.02h8.1V13.2H236.3v11.372h7.005c2.456 0 4.185-1.365 4.185-3.639s-1.547-3.548-4.094-3.548m.182 5.277h-5.095V19.3h5.095c1.274 0 2.092.728 2.092 1.729s-.637 1.729-2.092 1.638" data-name="Path 7" transform="translate(-19.175 -.569)"/>
        <path id="prefix__Path_8" d="M233.494 41.51v.09a2.47 2.47 0 0 1-.546 1.547 2.147 2.147 0 0 1-1.456.637 2.116 2.116 0 0 1-2.092-2.092 2.581 2.581 0 0 1 .637-1.547 2.146 2.146 0 0 1 3.184.364l-.546.364a1.467 1.467 0 0 0-1.183-.546 1.368 1.368 0 0 0-1 .364 1.082 1.082 0 0 0-.364 1 1.357 1.357 0 0 0 2.638.455h-1.456v-.726z" data-name="Path 8" transform="translate(-18.552 -2.951)"/>
        <path id="prefix__Path_9" d="M238.63 43.712h-.73l-.819-1.456h-1.547v1.456h-.634V39.8h2.547a.988.988 0 0 1 .819.364 1.537 1.537 0 0 1 .273.91 1.028 1.028 0 0 1-.819 1.183zm-1.274-2.092c.273 0 .546-.182.546-.364v-.182a.482.482 0 0 0-.546-.546h-1.82v1.092z" data-name="Path 9" transform="translate(-19.048 -2.969)"/>
        <path id="prefix__Path_10" d="M243.885 41.692a2.092 2.092 0 1 1-4.185 0 2.581 2.581 0 0 1 .637-1.547 2.066 2.066 0 0 1 1.456-.546 1.851 1.851 0 0 1 1.365.546 2.242 2.242 0 0 1 .728 1.547m-.728 0a1.417 1.417 0 0 0-2.365-1 1.082 1.082 0 0 0-.364 1 1.368 1.368 0 0 0 .364 1 1.542 1.542 0 0 0 2.092 0 1.3 1.3 0 0 0 .273-1" data-name="Path 10" transform="translate(-19.482 -2.951)"/>
        <path id="prefix__Path_11" d="M248.839 42.438a1.461 1.461 0 0 1-.455 1 2.33 2.33 0 0 1-2.638 0 1.581 1.581 0 0 1-.546-1V39.8h.637v2.456c0 .546.364.91 1.183.91s1.183-.273 1.183-.91V39.8h.637z" data-name="Path 11" transform="translate(-19.978 -2.969)"/>
        <path id="prefix__Path_12" d="M252.847 39.8a.988.988 0 0 1 .819.364 1.653 1.653 0 0 1 0 1.82 1.168 1.168 0 0 1-.91.364h-1.82V43.8h-.636v-3.909h2.547zm-.091 1.82a.482.482 0 0 0 .546-.546c0-.364-.182-.546-.637-.546h-1.82v1.092h1.91z" data-name="Path 12" transform="translate(-20.438 -2.969)"/>
        <path id="prefix__Path_13" d="M160.193 40.683a2.193 2.193 0 0 0-1.365-.364c-.728 0-1 .182-1 .455s.091.273.364.364l1.092.091a2.586 2.586 0 0 1 1.092.364.988.988 0 0 1 .364.819 1.461 1.461 0 0 1-.455 1 2.089 2.089 0 0 1-1.274.364 2.531 2.531 0 0 1-1.91-.728l.364-.546a2.54 2.54 0 0 0 1.638.546 1.352 1.352 0 0 0 .819-.182.5.5 0 0 0 .273-.455.6.6 0 0 0-.364-.455 1.349 1.349 0 0 0-.637-.091l-.819-.091a1.27 1.27 0 0 1-.819-.273 1.033 1.033 0 0 1-.273-.728 1.12 1.12 0 0 1 .455-.91 2.089 2.089 0 0 1 1.274-.364 2.8 2.8 0 0 1 1.729.546z" data-name="Path 13" transform="translate(-12.027 -2.942)"/>
        <path id="prefix__Path_14" d="M165.885 41.692a2.019 2.019 0 0 1-1.91 2.092h-.182a2.116 2.116 0 0 1-2.092-2.092 2.581 2.581 0 0 1 .637-1.547 2.094 2.094 0 0 1 2.82 0 2.242 2.242 0 0 1 .728 1.547m-.637 0a1.417 1.417 0 0 0-2.365-1 1.082 1.082 0 0 0-.364 1 1.368 1.368 0 0 0 .364 1 1.542 1.542 0 0 0 2.092 0 3.225 3.225 0 0 0 .273-1" data-name="Path 14" transform="translate(-12.442 -2.951)"/>
        <path id="prefix__Path_15" d="M171.01 40.692l-.546.273a1.738 1.738 0 0 0-1.274-.637 1.588 1.588 0 0 0-1.092.364 1.428 1.428 0 0 0 0 2 1.25 1.25 0 0 0 1.092.364 1.592 1.592 0 0 0 1.274-.637l.546.364a2.1 2.1 0 0 1-1.82 1 2.47 2.47 0 0 1-1.547-.546 1.819 1.819 0 0 1-.546-1.547 2.019 2.019 0 0 1 2-2.092 2.217 2.217 0 0 1 1.91 1.092" data-name="Path 15" transform="translate(-12.928 -2.951)"/>
        <path id="prefix__Rectangle_1" d="M0 0H0.637V3.912H0z" data-name="Rectangle 1" transform="translate(158.992 36.831)"/>
        <path id="prefix__Path_16" d="M177.566 43.712H174.2V39.8h3.275v.637h-2.638v.91h1.82v.637h-1.82v1h2.729z" data-name="Path 16" transform="translate(-13.57 -2.969)"/>
        <path id="prefix__Path_17" d="M181.948 40.437h-1.456v3.275h-.637v-3.275H178.4V39.8h3.548z" data-name="Path 17" transform="translate(-13.949 -2.969)"/>
        <path id="prefix__Path_18" d="M186.466 43.712H183.1V39.8h3.275v.637h-2.638v.91h1.82v.637h-1.82v1h2.729z" data-name="Path 18" transform="translate(-14.374 -2.969)"/>
        <path id="prefix__Path_19" d="M193.294 41.51v.09a2.47 2.47 0 0 1-.546 1.547 2.147 2.147 0 0 1-1.456.637 2.116 2.116 0 0 1-2.092-2.092 2.581 2.581 0 0 1 .637-1.547 2.146 2.146 0 0 1 3.184.364l-.546.364a1.467 1.467 0 0 0-1.183-.546 1.368 1.368 0 0 0-1 .364 1.428 1.428 0 0 0 0 2 1.368 1.368 0 0 0 1 .364 1.285 1.285 0 0 0 1.274-.91h-1.456v-.725z" data-name="Path 19" transform="translate(-14.924 -2.951)"/>
        <path id="prefix__Path_20" d="M198.057 43.712H194.6V39.8h3.275v.637h-2.638v.91h1.82v.637h-1.82v1h2.82z" data-name="Path 20" transform="translate(-15.411 -2.969)"/>
        <path id="prefix__Path_21" d="M202.93 43.712h-.91l-2.183-3.275v3.275h-.637V39.8h.91l2.183 3.275V39.8h.637z" data-name="Path 21" transform="translate(-15.826 -2.969)"/>
        <path id="prefix__Path_22" d="M207.857 43.712H204.4V39.8h3.275v.637h-2.638v.91h1.82v.637h-1.82v1h2.82z" data-name="Path 22" transform="translate(-16.296 -2.969)"/>
        <path id="prefix__Path_23" d="M212.73 43.712H212l-.819-1.456h-1.547v1.456H209V39.8h2.547a.988.988 0 0 1 .819.364 1.537 1.537 0 0 1 .273.91 1.028 1.028 0 0 1-.819 1.183zm-1.274-2.092a.482.482 0 0 0 .546-.546c0-.364-.182-.546-.637-.546h-1.82v1.092h1.91z" data-name="Path 23" transform="translate(-16.711 -2.969)"/>
        <path id="prefix__Path_24" d="M217.694 43.712h-.637l-.364-.819H214.6l-.364.819h-.636l1.729-3.912h.728zm-1.274-1.547l-.728-1.729-.728 1.729z" data-name="Path 24" transform="translate(-17.126 -2.969)"/>
        <path id="prefix__Path_25" d="M221.8 43.712h-3V39.8h.637v3.184h2.363z" data-name="Path 25" transform="translate(-17.595 -2.969)"/>
        <path id="prefix__Path_26" d="M226.266 43.712H222.9V39.8h3.275v.637h-2.638v.91h1.82v.637h-1.82v1h2.729z" data-name="Path 26" transform="translate(-17.965 -2.969)"/>
        <path id="prefix__Rectangle_2" fill="#e9041e" d="M0 0H22.835V11.645H0z" data-name="Rectangle 2" transform="translate(144.8 6.9)"/>
        <path id="prefix__Rectangle_3" d="M0 0H22.835V11.372H0z" data-name="Rectangle 3" transform="translate(144.8 18.363)"/>
        <path id="prefix__Rectangle_4" fill="#fff" d="M0 0H14.829V1.365H0z" data-name="Rectangle 4" transform="translate(148.712 17.635)"/>
    </g>
</svg>
