<svg xmlns="http://www.w3.org/2000/svg" width="282.7" height="68.8" viewBox="0 0 282.7 68.8">
    <defs>
        <style>
            .cls-1{fill:#e9041e}.cls-2{fill:#fff}.cls-3{fill:none}
        </style>
    </defs>
    <g id="SG_RB_Brand_Block_2_L_LIGHT_BKGD-RGB" data-name="SG_RB_Brand Block_2 L_LIGHT BKGD-RGB" transform="translate(0 12)">
        <path id="Path_1" d="M198 13.3a4.008 4.008 0 0 1 4.4 3.8v.5c0 2.6-1.7 4.1-4.4 4.1h-5.4v4.2h-2.3V13.3zm.1 6.2a1.883 1.883 0 0 0 2-1.7v-.3a2.017 2.017 0 0 0-1.8-2.2h-5.8v4.2z" data-name="Path 1" transform="translate(-12)"/>
        <path id="Path_2" d="M211 26.1c-4 0-7.3-2.7-7.3-6.6s3.3-6.6 7.3-6.6 7.3 2.7 7.3 6.6-3.3 6.6-7.3 6.6m0-11.1a4.579 4.579 0 0 0-4.9 4.2v.3c0 2.6 1.9 4.5 4.9 4.5s4.9-1.9 4.9-4.5S214 15 211 15" data-name="Path 2" transform="translate(-12)"/>
        <path id="Path_3" d="M227.9 26.1c-4.2 0-7.3-2.7-7.3-6.6s3.2-6.6 7.3-6.6a8.806 8.806 0 0 1 5.8 1.9l-1.2 1.8A7.487 7.487 0 0 0 228 15c-3.1 0-5 1.9-5 4.4s1.9 4.5 5 4.5a7.461 7.461 0 0 0 4.6-1.5l1.2 1.8a10.1 10.1 0 0 1-5.9 1.9" data-name="Path 3" transform="translate(-12)"/>
        <path id="Path_4" d="M253.8 22.7l-1.4 3h-2.5l6.1-12.5h2.4l6.1 12.5H262l-1.4-3zm1-2h4.8l-2.4-5.1z" data-name="Path 4" transform="translate(-12)"/>
        <path id="Path_5" d="M276.7 25.8v-5.4h-8.2v5.4h-2.3V13.3h2.3v5.1h8.2v-5.1h2.3v12.5z" data-name="Path 5" transform="translate(-12)"/>
        <path id="Path_6" d="M282.5 25.8V13.3h2.3v5.8l6.3-5.8h2.8l-6.4 6 6.7 6.5h-3.1l-6.3-6.1v6.1z" data-name="Path 6" transform="translate(-12)"/>
        <path id="Path_7" d="M244.1 17.8h-5.4v-2.6h8.9v-2h-11.3v12.5h7.7c2.7 0 4.6-1.5 4.6-4s-1.7-3.9-4.5-3.9m.2 5.8h-5.6v-3.7h5.6c1.4 0 2.3.8 2.3 1.9s-.7 1.9-2.3 1.8" data-name="Path 7" transform="translate(-12)"/>
        <path id="Path_8" d="M233.9 41.7v.1a2.715 2.715 0 0 1-.6 1.7 2.36 2.36 0 0 1-1.6.7 2.326 2.326 0 0 1-2.3-2.3 2.837 2.837 0 0 1 .7-1.7 2.359 2.359 0 0 1 3.5.4l-.6.4a1.612 1.612 0 0 0-1.3-.6 1.5 1.5 0 0 0-1.1.4 1.19 1.19 0 0 0-.4 1.1 1.492 1.492 0 0 0 2.9.5h-1.6v-.8z" data-name="Path 8" transform="translate(-12)"/>
        <path id="Path_9" d="M239 44.1h-.8l-.9-1.6h-1.7v1.6h-.7v-4.3h2.8a1.086 1.086 0 0 1 .9.4 1.689 1.689 0 0 1 .3 1 1.13 1.13 0 0 1-.9 1.3zm-1.4-2.3c.3 0 .6-.2.6-.4v-.2a.53.53 0 0 0-.6-.6h-2v1.2z" data-name="Path 9" transform="translate(-12)"/>
        <path id="Path_10" d="M244.3 41.9a2.3 2.3 0 0 1-4.6 0 2.837 2.837 0 0 1 .7-1.7 2.271 2.271 0 0 1 1.6-.6 2.035 2.035 0 0 1 1.5.6 2.465 2.465 0 0 1 .8 1.7m-.8 0a1.558 1.558 0 0 0-2.6-1.1 1.19 1.19 0 0 0-.4 1.1 1.5 1.5 0 0 0 .4 1.1 1.694 1.694 0 0 0 2.3 0 1.431 1.431 0 0 0 .3-1.1" data-name="Path 10" transform="translate(-12)"/>
        <path id="Path_11" d="M249.2 42.7a1.606 1.606 0 0 1-.5 1.1 2.561 2.561 0 0 1-2.9 0 1.738 1.738 0 0 1-.6-1.1v-2.9h.7v2.7c0 .6.4 1 1.3 1s1.3-.3 1.3-1v-2.7h.7z" data-name="Path 11" transform="translate(-12)"/>
        <path id="Path_12" d="M253.1 39.8a1.086 1.086 0 0 1 .9.4 1.817 1.817 0 0 1 0 2 1.284 1.284 0 0 1-1 .4h-2v1.6h-.7v-4.3h2.8zm-.1 2a.53.53 0 0 0 .6-.6c0-.4-.2-.6-.7-.6h-2v1.2h2.1z" data-name="Path 12" transform="translate(-12)"/>
        <path id="Path_13" d="M160.5 40.8a2.41 2.41 0 0 0-1.5-.4c-.8 0-1.1.2-1.1.5s.1.3.4.4l1.2.1a2.843 2.843 0 0 1 1.2.4 1.086 1.086 0 0 1 .4.9 1.606 1.606 0 0 1-.5 1.1 2.3 2.3 0 0 1-1.4.4 2.782 2.782 0 0 1-2.1-.8l.4-.6a2.792 2.792 0 0 0 1.8.6 1.486 1.486 0 0 0 .9-.2.55.55 0 0 0 .3-.5.664.664 0 0 0-.4-.5 1.483 1.483 0 0 0-.7-.1l-.9-.1a1.4 1.4 0 0 1-.9-.3 1.136 1.136 0 0 1-.3-.8 1.231 1.231 0 0 1 .5-1 2.3 2.3 0 0 1 1.4-.4 3.077 3.077 0 0 1 1.9.6z" data-name="Path 13" transform="translate(-12)"/>
        <path id="Path_14" d="M166.3 41.9a2.219 2.219 0 0 1-2.1 2.3h-.2a2.326 2.326 0 0 1-2.3-2.3 2.837 2.837 0 0 1 .7-1.7 2.3 2.3 0 0 1 3.1 0 2.465 2.465 0 0 1 .8 1.7m-.7 0a1.558 1.558 0 0 0-2.6-1.1 1.19 1.19 0 0 0-.4 1.1 1.5 1.5 0 0 0 .4 1.1 1.694 1.694 0 0 0 2.3 0 3.545 3.545 0 0 0 .3-1.1" data-name="Path 14" transform="translate(-12)"/>
        <path id="Path_15" d="M171.4 40.8l-.6.3a1.91 1.91 0 0 0-1.4-.7 1.746 1.746 0 0 0-1.2.4 1.569 1.569 0 0 0 0 2.2 1.374 1.374 0 0 0 1.2.4 1.75 1.75 0 0 0 1.4-.7l.6.4a2.305 2.305 0 0 1-2 1.1 2.716 2.716 0 0 1-1.7-.6 2 2 0 0 1-.6-1.7 2.219 2.219 0 0 1 2.2-2.3 2.437 2.437 0 0 1 2.1 1.2" data-name="Path 15" transform="translate(-12)"/>
        <path id="Rectangle_1" d="M0 0h.7v4.3H0z" data-name="Rectangle 1" transform="translate(160.4 39.8)"/>
        <path id="Path_16" d="M177.9 44.1h-3.7v-4.3h3.6v.7h-2.9v1h2v.7h-2v1.1h3z" data-name="Path 16" transform="translate(-12)"/>
        <path id="Path_17" d="M182.3 40.5h-1.6v3.6h-.7v-3.6h-1.6v-.7h3.9z" data-name="Path 17" transform="translate(-12)"/>
        <path id="Path_18" d="M186.8 44.1h-3.7v-4.3h3.6v.7h-2.9v1h2v.7h-2v1.1h3z" data-name="Path 18" transform="translate(-12)"/>
        <path id="Path_19" d="M193.7 41.7v.1a2.715 2.715 0 0 1-.6 1.7 2.36 2.36 0 0 1-1.6.7 2.326 2.326 0 0 1-2.3-2.3 2.837 2.837 0 0 1 .7-1.7 2.359 2.359 0 0 1 3.5.4l-.6.4a1.612 1.612 0 0 0-1.3-.6 1.5 1.5 0 0 0-1.1.4 1.569 1.569 0 0 0 0 2.2 1.5 1.5 0 0 0 1.1.4 1.412 1.412 0 0 0 1.4-1h-1.6v-.8z" data-name="Path 19" transform="translate(-12)"/>
        <path id="Path_20" d="M198.4 44.1h-3.8v-4.3h3.6v.7h-2.9v1h2v.7h-2v1.1h3.1z" data-name="Path 20" transform="translate(-12)"/>
        <path id="Path_21" d="M203.3 44.1h-1l-2.4-3.6v3.6h-.7v-4.3h1l2.4 3.6v-3.6h.7z" data-name="Path 21" transform="translate(-12)"/>
        <path id="Path_22" d="M208.2 44.1h-3.8v-4.3h3.6v.7h-2.9v1h2v.7h-2v1.1h3.1z" data-name="Path 22" transform="translate(-12)"/>
        <path id="Path_23" d="M213.1 44.1h-.8l-.9-1.6h-1.7v1.6h-.7v-4.3h2.8a1.086 1.086 0 0 1 .9.4 1.689 1.689 0 0 1 .3 1 1.13 1.13 0 0 1-.9 1.3zm-1.4-2.3a.53.53 0 0 0 .6-.6c0-.4-.2-.6-.7-.6h-2v1.2h2.1z" data-name="Path 23" transform="translate(-12)"/>
        <path id="Path_24" d="M218.1 44.1h-.7l-.4-.9h-2.3l-.4.9h-.7l1.9-4.3h.8zm-1.4-1.7l-.8-1.9-.8 1.9z" data-name="Path 24" transform="translate(-12)"/>
        <path id="Path_25" d="M222.1 44.1h-3.3v-4.3h.7v3.5h2.6z" data-name="Path 25" transform="translate(-12)"/>
        <path id="Path_26" d="M226.6 44.1h-3.7v-4.3h3.6v.7h-2.9v1h2v.7h-2v1.1h3z" data-name="Path 26" transform="translate(-12)"/>
        <path id="Rectangle_2" d="M0 0h25.1v12.8H0z" class="cls-1" data-name="Rectangle 2" transform="translate(144.8 6.9)"/>
        <path id="Rectangle_3" d="M0 0h25.1v12.5H0z" data-name="Rectangle 3" transform="translate(144.8 19.5)"/>
        <path id="Rectangle_4" d="M0 0h16.3v1.5H0z" class="cls-2" data-name="Rectangle 4" transform="translate(149.1 18.7)"/>
        <path id="Rectangle_5" d="M0 0h282.7v68.8H0z" class="cls-3" data-name="Rectangle 5" transform="translate(0 -12)"/>
        <path id="Path_27" d="M12.5.5H26V4h-9v2.6h4.2a6.629 6.629 0 0 1 4.5 1.3 4.224 4.224 0 0 1 1.6 3.6 4.385 4.385 0 0 1-1.8 3.8 7.807 7.807 0 0 1-4.9 1.4h-8.1zm7.8 13a3.085 3.085 0 0 0 1.8-.5 1.612 1.612 0 0 0 .6-1.3c0-1.1-.8-1.7-2.4-1.7H17v3.5z" data-name="Path 27" transform="translate(-12)"/>
        <path id="Path_28" d="M44.5.5L37.8 13a8.644 8.644 0 0 1-2.6 3.1 5.887 5.887 0 0 1-3.4 1 7.173 7.173 0 0 1-2.9-.6l1.1-3.4a4.529 4.529 0 0 0 1.6.3 2.663 2.663 0 0 0 1.2-.3 3.178 3.178 0 0 0 1-1L27.6.5h4.8l3.8 7.8L40.1.5z" data-name="Path 28" transform="translate(-12)"/>
        <path id="Path_29" d="M61.4 13.1V20h-4.2v-3.3H46.8V20h-4.2v-6.9h.6c1 0 1.6-.7 2-2a20.972 20.972 0 0 0 .7-5.6l.2-5h13.1v12.6zm-11.9-2.8a7.257 7.257 0 0 1-1 2.8h6.1V4.2H50V6a31.48 31.48 0 0 1-.5 4.3z" data-name="Path 29" transform="translate(-12)"/>
        <path id="Path_30" d="M78.6.5L71.9 13a8.644 8.644 0 0 1-2.6 3.1 5.887 5.887 0 0 1-3.4 1 7.173 7.173 0 0 1-2.9-.6l1.1-3.4a4.529 4.529 0 0 0 1.6.3 2.663 2.663 0 0 0 1.2-.3 3.178 3.178 0 0 0 1-1L61.7.5h4.8l3.8 7.8L74.2.5z" data-name="Path 30" transform="translate(-12)"/>
        <path id="Path_31" d="M101.3 13.1V.5h-4.6v12.6h-4.1V.5H88v12.6h-4.2V.5h-4.5v16.2h19.9V20h4.2v-6.9z" data-name="Path 31" transform="translate(-12)"/>
        <path id="Path_32" d="M118.2 13.2v3.5h-13V.5h12.7V4h-8.2v2.7h7.2v3.4h-7.2v3z" data-name="Path 32" transform="translate(-12)"/>
        <path id="Path_33" d="M133.1 13.2v3.5H120V.5h12.7V4h-8.2v2.7h7.2v3.4h-7.2v3z" data-name="Path 33" transform="translate(-12)"/>
        <path id="Path_34" d="M135.8 7.2h11.6v2.6h-11.6z" data-name="Path 34" transform="translate(-12)"/>
        <path id="Path_35" d="M66.8 22.5a7.23 7.23 0 0 1 3 3 8.973 8.973 0 0 1 0 8.7 7.23 7.23 0 0 1-3 3 9.56 9.56 0 0 1-4.4 1.1 10.974 10.974 0 0 1-4-.8 7.561 7.561 0 0 1-3-2.3l2.9-2.6a4.928 4.928 0 0 0 3.9 1.9 4.376 4.376 0 0 0 2.5-.8 4 4 0 0 0 1.4-2.2h-5.9v-3.4H66a3.755 3.755 0 0 0-1.4-2.1 4.376 4.376 0 0 0-2.5-.8 5.077 5.077 0 0 0-3.9 1.9l-2.9-2.6a7.561 7.561 0 0 1 3-2.3 10.974 10.974 0 0 1 4-.8 9.364 9.364 0 0 1 4.5 1.1z" data-name="Path 35" transform="translate(-12)"/>
        <path id="Path_36" d="M85.5 25.4h-5V38H76V25.4h-5v-3.6h14.5z" data-name="Path 36" transform="translate(-12)"/>
        <path id="Path_37" d="M89.9 37.2A8.267 8.267 0 0 1 86.4 26a8.435 8.435 0 0 1 3.5-3.5 9.967 9.967 0 0 1 9.2 0 8.267 8.267 0 0 1 3.5 11.2 8.435 8.435 0 0 1-3.5 3.5 10.6 10.6 0 0 1-9.2 0zm6.8-3.3a4.891 4.891 0 0 0 1.6-1.6 5.1 5.1 0 0 0 0-4.8 3.539 3.539 0 0 0-1.6-1.6 4.332 4.332 0 0 0-4.4 0 4.891 4.891 0 0 0-1.6 1.6 5.1 5.1 0 0 0 0 4.8 4.1 4.1 0 0 0 1.6 1.6 4.332 4.332 0 0 0 4.4 0z" data-name="Path 37" transform="translate(-12)"/>
        <path id="Path_38" d="M124.2 30.9a4.069 4.069 0 0 1 .8 2.4 4.215 4.215 0 0 1-1.7 3.4 8.094 8.094 0 0 1-4.8 1.3h-8.3V21.7h7.9a7.742 7.742 0 0 1 4.5 1.1 3.432 3.432 0 0 1 1.6 3.2 3.936 3.936 0 0 1-.6 2.1 4.281 4.281 0 0 1-1.6 1.4 4 4 0 0 1 2.2 1.4zm-9.5-2.7h2.9c1.3 0 1.9-.5 1.9-1.6s-.7-1.6-1.9-1.6h-2.9zm5.6 4.8c0-1.1-.7-1.6-2-1.6h-3.6v3.3h3.6c1.3 0 2-.6 2-1.7z" data-name="Path 38" transform="translate(-12)"/>
        <path id="Path_39" d="M139.5 28.2a5 5 0 0 1 1.6 4 5.463 5.463 0 0 1-1.8 4.3 7.421 7.421 0 0 1-5 1.5h-7.7V21.7h4.5v5.2h3.8a7.681 7.681 0 0 1 4.6 1.3zm-3.7 5.8a2.41 2.41 0 0 0 .7-1.8c0-1.4-.8-2.1-2.5-2.1h-2.8v4.5h2.9a2.716 2.716 0 0 0 1.7-.6zm7.1-12.3h4.5V38h-4.5z" data-name="Path 39" transform="translate(-12)"/>
    </g>
</svg>
