<svg xmlns="http://www.w3.org/2000/svg" width="64" height="64" viewBox="0 0 64 64">
    <defs>
        <style>
            .prefix__cls-1{fill:none}.prefix__cls-3{fill:#fff;stroke-width:2px;stroke:#282423}.prefix__cls-5{stroke:none}
        </style>
    </defs>
    <g id="prefix__Group_660" data-name="Group 660" transform="translate(-768 -1081)">
        <path id="prefix__Rectangle_422" d="M0 0H64V64H0z" class="prefix__cls-1" data-name="Rectangle 422" transform="translate(768 1081)"/>
        <g id="prefix__Rectangle_440" data-name="Rectangle 440" transform="translate(775 1099)" style="stroke-linecap:round;stroke-linejoin:round;stroke:#282423;fill:#fff;stroke-width:2px">
            <rect width="48" height="35" class="prefix__cls-5" rx="2"/>
            <rect width="46" height="33" x="1" y="1" class="prefix__cls-1" rx="1"/>
        </g>
        <g id="prefix__Rectangle_443" class="prefix__cls-3" data-name="Rectangle 443" transform="translate(790 1095)">
            <path d="M2 0h14a2 2 0 0 1 2 2v4H0V2a2 2 0 0 1 2-2z" class="prefix__cls-5"/>
            <rect width="16" height="4" x="1" y="1" class="prefix__cls-1" rx="1"/>
        </g>
        <g id="prefix__Rectangle_447" class="prefix__cls-3" data-name="Rectangle 447">
            <path d="M0 0h42v8a4 4 0 0 1-4 4H4a4 4 0 0 1-4-4V0z" class="prefix__cls-5" transform="translate(778 1099)"/>
            <path d="M2 1h38a1 1 0 0 1 1 1v6a3 3 0 0 1-3 3H4a3 3 0 0 1-3-3V2a1 1 0 0 1 1-1z" class="prefix__cls-1" transform="translate(778 1099)"/>
        </g>
        <g id="prefix__Rectangle_435" class="prefix__cls-3" data-name="Rectangle 435" transform="translate(805 1112)">
            <rect width="13" height="7" class="prefix__cls-5" rx="2"/>
            <rect width="11" height="5" x="1" y="1" class="prefix__cls-1" rx="1"/>
        </g>
        <g id="prefix__Rectangle_434" class="prefix__cls-3" data-name="Rectangle 434" transform="translate(805 1117)">
            <rect width="13" height="7" class="prefix__cls-5" rx="2"/>
            <rect width="11" height="5" x="1" y="1" class="prefix__cls-1" rx="1"/>
        </g>
        <g id="prefix__Rectangle_429" class="prefix__cls-3" data-name="Rectangle 429" transform="translate(799 1117)">
            <rect width="13" height="7" class="prefix__cls-5" rx="2"/>
            <rect width="11" height="5" x="1" y="1" class="prefix__cls-1" rx="1"/>
        </g>
        <g id="prefix__Rectangle_433" class="prefix__cls-3" data-name="Rectangle 433" transform="translate(805 1122)">
            <rect width="13" height="7" class="prefix__cls-5" rx="2"/>
            <rect width="11" height="5" x="1" y="1" class="prefix__cls-1" rx="1"/>
        </g>
        <g id="prefix__Rectangle_430" class="prefix__cls-3" data-name="Rectangle 430" transform="translate(799 1122)">
            <rect width="13" height="7" class="prefix__cls-5" rx="2"/>
            <rect width="11" height="5" x="1" y="1" class="prefix__cls-1" rx="1"/>
        </g>
        <g id="prefix__Rectangle_437" class="prefix__cls-3" data-name="Rectangle 437" transform="translate(813 1122)">
            <rect width="13" height="7" class="prefix__cls-5" rx="2"/>
            <rect width="11" height="5" x="1" y="1" class="prefix__cls-1" rx="1"/>
        </g>
        <g id="prefix__Rectangle_432" class="prefix__cls-3" data-name="Rectangle 432" transform="translate(805 1127)">
            <rect width="13" height="7" class="prefix__cls-5" rx="2"/>
            <rect width="11" height="5" x="1" y="1" class="prefix__cls-1" rx="1"/>
        </g>
        <g id="prefix__Rectangle_431" class="prefix__cls-3" data-name="Rectangle 431" transform="translate(799 1127)">
            <rect width="13" height="7" class="prefix__cls-5" rx="2"/>
            <rect width="11" height="5" x="1" y="1" class="prefix__cls-1" rx="1"/>
        </g>
        <g id="prefix__Rectangle_436" class="prefix__cls-3" data-name="Rectangle 436" transform="translate(813 1127)">
            <rect width="13" height="7" class="prefix__cls-5" rx="2"/>
            <rect width="11" height="5" x="1" y="1" class="prefix__cls-1" rx="1"/>
        </g>
        <g id="prefix__Rectangle_445" data-name="Rectangle 445" transform="translate(796 1106)" style="stroke:#e9041e;fill:#fff;stroke-width:2px">
            <rect width="7" height="7" class="prefix__cls-5" rx="3.5"/>
            <rect width="5" height="5" x="1" y="1" class="prefix__cls-1" rx="2.5"/>
        </g>
    </g>
</svg>
