<svg id="pdf" xmlns="http://www.w3.org/2000/svg" width="21" height="23" viewBox="0 0 21 23">
  <defs>
    <style>
      .cls-1 {
        fill: rgba(0,0,0,0);
      }

      .cls-2 {
        fill: #282423;
        fill-rule: evenodd;
      }

      .cls-3 {
        fill: #fff;
      }
    </style>
  </defs>
  <rect id="Rectangle_425" data-name="Rectangle 425" class="cls-1" width="21" height="23"/>
  <path id="Path_1170" data-name="Path 1170" class="cls-2" d="M19,8V21H5V20H3v2a1,1,0,0,0,1,1H20a1,1,0,0,0,1-1V6L15,0H4A1,1,0,0,0,3,1v9H5V2h8V6a2,2,0,0,0,2,2ZM15,2.828,18.172,6H15ZM1,11a1,1,0,0,0-1,1v6a1,1,0,0,0,1,1H15a1,1,0,0,0,1-1V12a1,1,0,0,0-1-1Z"/>
  <path id="Path_1171" data-name="Path 1171" class="cls-3" d="M1.7,12.8V17h.9V15.62h.684c1.014,0,1.812-.324,1.812-1.41S4.3,12.8,3.282,12.8Zm2.478,1.41c0,.492-.39.618-.852.618H2.6V13.592h.726C3.786,13.592,4.176,13.712,4.176,14.21Zm2-1.41V17H7.746a1.969,1.969,0,0,0,2.2-2.1,1.969,1.969,0,0,0-2.2-2.1H6.174ZM9.03,14.9a1.158,1.158,0,0,1-1.284,1.308H7.074V13.592h.672A1.158,1.158,0,0,1,9.03,14.9Zm2.077-2.1V17h.9V15.4H13.9v-.81h-1.89V13.61h2.064V12.8Z"/>
</svg>
