<svg xmlns="http://www.w3.org/2000/svg" width="64.827" height="64" viewBox="0 0 64.827 64">
    <defs>
        <style>
            .prefix__cls-1{fill:#fff;stroke:#282423;stroke-width:2px}.prefix__cls-4{fill:none}.prefix__cls-5{stroke:none}
        </style>
    </defs>
    <g id="prefix__Group_645" data-name="Group 645" transform="translate(-602.173 -1123)">
        <g id="prefix__Rectangle_396" class="prefix__cls-1" data-name="Rectangle 396" transform="translate(633 1124)">
            <rect width="34" height="45" class="prefix__cls-5" rx="3"/>
            <rect width="32" height="43" x="1" y="1" class="prefix__cls-4" rx="2"/>
        </g>
        <g id="prefix__Rectangle_397" data-name="Rectangle 397" transform="translate(640 1130)" style="stroke:#e9041e;stroke-width:2px;fill:#fff">
            <rect width="8" height="10" class="prefix__cls-5" rx="3"/>
            <rect width="6" height="8" x="1" y="1" class="prefix__cls-4" rx="2"/>
        </g>
        <g id="prefix__Rectangle_400" class="prefix__cls-1" data-name="Rectangle 400" transform="translate(640 1142)">
            <rect width="8" height="10" class="prefix__cls-5" rx="3"/>
            <rect width="6" height="8" x="1" y="1" class="prefix__cls-4" rx="2"/>
        </g>
        <g id="prefix__Rectangle_398" class="prefix__cls-1" data-name="Rectangle 398" transform="translate(652 1130)">
            <rect width="8" height="10" class="prefix__cls-5" rx="3"/>
            <rect width="6" height="8" x="1" y="1" class="prefix__cls-4" rx="2"/>
        </g>
        <g id="prefix__Rectangle_399" class="prefix__cls-1" data-name="Rectangle 399" transform="translate(652 1142)">
            <rect width="8" height="10" class="prefix__cls-5" rx="3"/>
            <rect width="6" height="8" x="1" y="1" class="prefix__cls-4" rx="2"/>
        </g>
        <g id="prefix__Rectangle_401" class="prefix__cls-1" data-name="Rectangle 401">
            <path d="M3 0h2a3 3 0 0 1 3 3v11H0V3a3 3 0 0 1 3-3z" class="prefix__cls-5" transform="translate(646 1155)"/>
            <path d="M3 1h2a2 2 0 0 1 2 2v9a1 1 0 0 1-1 1H2a1 1 0 0 1-1-1V3a2 2 0 0 1 2-2z" class="prefix__cls-4" transform="translate(646 1155)"/>
        </g>
        <g id="prefix__Group_644" data-name="Group 644" transform="translate(603.46 1154.103)">
            <path id="prefix__Subtraction_5" d="M19.226 16.253a22.241 22.241 0 0 1-6.73-.869 28.369 28.369 0 0 1-7.042-3.132A16.075 16.075 0 0 1 .955 7.7a5.451 5.451 0 0 1-.49-5.292A8.518 8.518 0 0 1 1.952 0h4.2a4.4 4.4 0 0 0-.066.76 4.8 4.8 0 0 0 4.945 4.64A4.8 4.8 0 0 0 15.975.761 4.4 4.4 0 0 0 15.909 0h15.514a4.4 4.4 0 0 0-.066.76 4.954 4.954 0 0 0 9.888 0 4.4 4.4 0 0 0-.066-.76h4.749a6.668 6.668 0 0 1 .887 2.093 3.42 3.42 0 0 1-1.34 3.714c-2.936 2.136-9.248 4.458-9.311 4.482l-8.038 5.094a51.439 51.439 0 0 1-8.9.87z" class="prefix__cls-1" data-name="Subtraction 5" transform="rotate(180 23.323 8.842)"/>
            <g id="prefix__Ellipse_95" class="prefix__cls-1" data-name="Ellipse 95" transform="translate(30.769 12.108)">
                <circle cx="4.845" cy="4.845" r="4.845" class="prefix__cls-5"/>
                <circle cx="4.845" cy="4.845" r="3.845" class="prefix__cls-4"/>
            </g>
            <g id="prefix__Ellipse_96" class="prefix__cls-1" data-name="Ellipse 96" transform="translate(5.499 12.108)">
                <circle cx="4.845" cy="4.845" r="4.845" class="prefix__cls-5"/>
                <circle cx="4.845" cy="4.845" r="3.845" class="prefix__cls-4"/>
            </g>
            <path id="prefix__Path_1186" d="M9.654 8.543s19.194 1.833 21.727-6.25" data-name="Path 1186" transform="translate(-1 -.494)" style="fill:none;stroke-width:2px;stroke:#282423"/>
        </g>
        <path id="prefix__Rectangle_450" d="M0 0H64V64H0z" class="prefix__cls-4" data-name="Rectangle 450" transform="translate(603 1123)"/>
    </g>
</svg>
