<svg xmlns="http://www.w3.org/2000/svg" width="96" height="96" viewBox="0 0 96 96">
    <defs>
        <style>
            .prefix__cls-1{fill:none}.prefix__cls-2,.prefix__cls-3{fill:#fff;stroke-width:2px}.prefix__cls-2{stroke:#282423}.prefix__cls-3{stroke:#e9041e}.prefix__cls-4{stroke:none}
        </style>
    </defs>
    <g id="prefix__Group_665" data-name="Group 665" transform="translate(-294 -3260)">
        <path id="prefix__Rectangle_486" d="M0 0H96V96H0z" class="prefix__cls-1" data-name="Rectangle 486" transform="translate(294 3260)"/>
        <g id="prefix__Rectangle_478" class="prefix__cls-2" data-name="Rectangle 478" transform="translate(318 3273)">
            <rect width="48" height="72" class="prefix__cls-4" rx="4"/>
            <rect width="46" height="70" x="1" y="1" class="prefix__cls-1" rx="3"/>
        </g>
        <g id="prefix__Rectangle_482" class="prefix__cls-2" data-name="Rectangle 482" transform="translate(324 3284)">
            <rect width="36" height="47" class="prefix__cls-4" rx="4"/>
            <rect width="34" height="45" x="1" y="1" class="prefix__cls-1" rx="3"/>
        </g>
        <g id="prefix__Rectangle_488" class="prefix__cls-2" data-name="Rectangle 488" transform="translate(328 3288)">
            <rect width="20" height="10" class="prefix__cls-4" rx="4"/>
            <rect width="18" height="8" x="1" y="1" class="prefix__cls-1" rx="3"/>
        </g>
        <g id="prefix__Rectangle_489" class="prefix__cls-3" data-name="Rectangle 489" transform="translate(336 3300)">
            <rect width="20" height="10" class="prefix__cls-4" rx="4"/>
            <rect width="18" height="8" x="1" y="1" class="prefix__cls-1" rx="3"/>
        </g>
        <g id="prefix__Rectangle_490" class="prefix__cls-3" data-name="Rectangle 490" transform="translate(336 3312)">
            <rect width="20" height="15" class="prefix__cls-4" rx="4"/>
            <rect width="18" height="13" x="1" y="1" class="prefix__cls-1" rx="3"/>
        </g>
        <g id="prefix__Rectangle_479" class="prefix__cls-2" data-name="Rectangle 479" transform="translate(335 3277)">
            <rect width="14" height="5" class="prefix__cls-4" rx="2.5"/>
            <rect width="12" height="3" x="1" y="1" class="prefix__cls-1" rx="1.5"/>
        </g>
        <g id="prefix__Rectangle_481" class="prefix__cls-2" data-name="Rectangle 481" transform="translate(338 3333)">
            <rect width="8" height="8" class="prefix__cls-4" rx="4"/>
            <rect width="6" height="6" x="1" y="1" class="prefix__cls-1" rx="3"/>
        </g>
    </g>
</svg>
